<?xml version="1.0" encoding="iso-8859-1"?>
<!DOCTYPE svg PUBLIC "-//W3C//DTD SVG 1.1//EN" "http://www.w3.org/Graphics/SVG/1.1/DTD/svg11.dtd">
<svg version="1.1" xmlns="http://www.w3.org/2000/svg" xmlns:xlink="http://www.w3.org/1999/xlink"
	 viewBox="0 0 19 58">
<path d="M18.258,57.807c0.712-0.408,0.957-1.312,0.545-2.019
	c-0.309-0.53-13.186-22.645-15.629-26.84C5.652,24.677,18.375,2.739,18.681,2.211c0.409-0.705,0.166-1.607-0.542-2.014
	c-0.708-0.407-1.614-0.166-2.023,0.54C15.781,1.315,0.532,27.607,0.197,28.185c-0.143,0.246-0.205,0.517-0.196,0.781
	c-0.008,0.265,0.054,0.536,0.197,0.783c0.338,0.58,15.686,26.938,16.023,27.517C16.633,57.974,17.545,58.216,18.258,57.807z"/>
</svg>
