<?xml version="1.0" encoding="iso-8859-1"?>
<!DOCTYPE svg PUBLIC "-//W3C//DTD SVG 1.1//EN" "http://www.w3.org/Graphics/SVG/1.1/DTD/svg11.dtd">
<svg version="1.1" xmlns="http://www.w3.org/2000/svg" xmlns:xlink="http://www.w3.org/1999/xlink"
	 viewBox="-5 -5 40 40">
<path d="M15,30C6.716,30,0,23.284,0,15S6.716,0,15,0s15,6.716,15,15S23.284,30,15,30z
	 M22.549,9.237c-0.634,0.376-1.336,0.649-2.083,0.796c-0.598-0.638-1.45-1.036-2.393-1.036c-1.811,0-3.279,1.469-3.279,3.281
	c0,0.257,0.029,0.507,0.084,0.748c-2.725-0.137-5.142-1.443-6.759-3.428c-0.283,0.484-0.445,1.048-0.445,1.649
	c0,1.138,0.58,2.142,1.46,2.731c-0.538-0.017-1.043-0.165-1.486-0.41c-0.001,0.014-0.001,0.028-0.001,0.042
	c0,1.589,1.131,2.915,2.631,3.217c-0.275,0.075-0.565,0.115-0.864,0.115c-0.211,0-0.417-0.021-0.617-0.059
	c0.418,1.304,1.629,2.252,3.063,2.279c-1.122,0.88-2.536,1.404-4.073,1.404c-0.265,0-0.525-0.015-0.782-0.046
	c1.451,0.931,3.174,1.474,5.027,1.474c6.031,0,9.331-4.999,9.331-9.335c0-0.142-0.003-0.284-0.009-0.425
	c0.641-0.463,1.197-1.041,1.636-1.698c-0.588,0.261-1.221,0.437-1.884,0.516C21.784,10.646,22.304,10.003,22.549,9.237z"/>
</svg>
