<?xml version="1.0" encoding="utf-8"?>
<!-- Generator: Adobe Illustrator 16.0.0, SVG Export Plug-In . SVG Version: 6.00 Build 0)  -->
<!DOCTYPE svg PUBLIC "-//W3C//DTD SVG 1.1//EN" "http://www.w3.org/Graphics/SVG/1.1/DTD/svg11.dtd">
<svg version="1.1" id="Layer_5" xmlns="http://www.w3.org/2000/svg" xmlns:xlink="http://www.w3.org/1999/xlink" x="0px" y="0px"
	 width="80px" height="80px" viewBox="0 0 80 80" enable-background="new 0 0 80 80" xml:space="preserve">
<g>
	<path d="M59.7,27.5l-3.5,2.4c-1.2,0.8-2.3,1.7-3.5,2.5c-2.3,1.6-4.6,3.4-6.9,5.1c-1.1,0.9-2.3,1.7-3.4,2.6L40,42l-2.5-1.9
		c-1.1-0.9-2.2-1.8-3.4-2.6c-2.3-1.7-4.5-3.4-6.9-5.1c-1.2-0.8-2.3-1.7-3.5-2.5l-3.5-2.4c-1.2-0.8-2.4-1.6-3.6-2.4
		c-1.2-0.8-2.4-1.5-3.6-2.3c1,1,2.1,2,3.1,3c1,1,2.1,2,3.2,3l3.2,2.9c1.1,1,2.2,1.9,3.3,2.8c2.2,1.9,4.4,3.7,6.6,5.5
		c1.1,0.9,2.2,1.8,3.3,2.7l3.3,2.7l0.9,0.7l0.9-0.7l3.3-2.7c1.1-0.9,2.2-1.8,3.3-2.7c2.2-1.8,4.4-3.6,6.6-5.5
		c1.1-0.9,2.2-1.9,3.3-2.8l3.2-2.9c1.1-1,2.1-2,3.2-3c1-1,2.1-2,3.1-3c-1.2,0.7-2.4,1.5-3.6,2.3C62.1,25.9,60.9,26.7,59.7,27.5z"/>
	<path d="M0,0v80h80V0H0z M66.9,59.4H13.1V22.9h53.8V59.4z"/>
</g>
</svg>
