<?xml version="1.0" encoding="utf-8"?>
<!-- Generator: Adobe Illustrator 16.0.0, SVG Export Plug-In . SVG Version: 6.00 Build 0)  -->
<!DOCTYPE svg PUBLIC "-//W3C//DTD SVG 1.1//EN" "http://www.w3.org/Graphics/SVG/1.1/DTD/svg11.dtd">
<svg version="1.1" id="Layer_5" xmlns="http://www.w3.org/2000/svg" xmlns:xlink="http://www.w3.org/1999/xlink" x="0px" y="0px"
	 width="80px" height="80px" viewBox="0 0 80 80" enable-background="new 0 0 80 80" xml:space="preserve">
<g>
	<path d="M0,0v80h80V0H0z M26.344,68.16h-11.52V32.599h11.52V68.16z M20.579,28.854h-0.074
		c-3.867,0-6.368-2.733-6.368-6.147c0-3.487,2.576-6.144,6.518-6.144c3.94,0,6.367,2.656,6.441,6.144
		C27.096,26.12,24.595,28.854,20.579,28.854z M68.57,68.184H57.05V49.157c0-4.78-1.667-8.04-5.836-8.04
		c-3.185,0-5.078,2.198-5.913,4.322c-0.306,0.761-0.376,1.82-0.376,2.881v19.863H33.401c0,0,0.151-32.225,0-35.562h11.523v5.037
		c1.528-2.422,4.266-5.872,10.383-5.872c7.578,0,13.263,5.083,13.263,16.005V68.184z"/>
</g>
</svg>
