<?xml version="1.0" encoding="iso-8859-1"?>
<!DOCTYPE svg PUBLIC "-//W3C//DTD SVG 1.1//EN" "http://www.w3.org/Graphics/SVG/1.1/DTD/svg11.dtd">
<svg viewBox="-1 -1 38 32" version="1.1" xmlns="http://www.w3.org/2000/svg" xmlns:xlink="http://www.w3.org/1999/xlink">
<path d="M27.849,29.724c-0.015,0.013-0.026,0.031-0.046,0.045
	c-0.641,0.408-1.497,0.23-1.914-0.4c-0.416-0.627-0.236-1.466,0.408-1.874l-0.009-0.013c4.173-2.66,6.941-7.26,6.941-12.487
	c0-5.23-2.768-9.83-6.943-12.49l0.007-0.011c-0.641-0.41-0.824-1.246-0.407-1.876c0.419-0.627,1.273-0.804,1.917-0.397
	c0.02,0.013,0.031,0.031,0.049,0.045c4.903,3.15,8.148,8.562,8.148,14.729C36.001,21.161,32.756,26.577,27.849,29.724z
	 M30.462,14.994c0,4.243-2.228,7.959-5.588,10.145c-0.031,0.024-0.05,0.058-0.086,0.082c-0.642,0.408-1.497,0.23-1.916-0.4
	c-0.417-0.625-0.234-1.463,0.407-1.871c0,0,0.001,0,0.001-0.003l-0.009-0.013c2.651-1.694,4.422-4.614,4.422-7.941
	s-1.77-6.249-4.425-7.943l0.011-0.013c-0.644-0.411-0.825-1.247-0.408-1.874c0.417-0.628,1.274-0.805,1.917-0.397
	c0.035,0.021,0.052,0.056,0.084,0.079C28.234,7.03,30.462,10.749,30.462,14.994z M21.861,20.589
	c-0.034,0.027-0.053,0.064-0.089,0.087c-0.642,0.408-1.499,0.228-1.917-0.399l-5.128-7.729c-0.538,0.683-0.881,1.517-0.881,2.446
	c0,1.424,0.758,2.676,1.895,3.401l-0.004,0.008c0.641,0.408,0.824,1.25,0.405,1.877c-0.416,0.627-1.274,0.805-1.912,0.397
	c-0.034-0.021-0.053-0.055-0.083-0.079c-1.846-1.22-3.07-3.264-3.07-5.603c0-2.339,1.222-4.38,3.062-5.598
	c0.034-0.024,0.054-0.061,0.091-0.085c0.641-0.407,1.499-0.23,1.915,0.397l5.129,7.729c0.536-0.683,0.879-1.517,0.879-2.443
	c0-1.427-0.758-2.678-1.897-3.404l0.004-0.005c-0.641-0.408-0.822-1.247-0.406-1.874c0.418-0.63,1.271-0.807,1.915-0.4
	c0.035,0.021,0.054,0.058,0.087,0.082c1.843,1.217,3.067,3.261,3.067,5.601C24.923,17.331,23.7,19.372,21.861,20.589z M12.732,7.052
	c-2.655,1.694-4.424,4.616-4.424,7.943s1.767,6.246,4.422,7.941l-0.01,0.016h0.002c0.64,0.408,0.821,1.246,0.405,1.874
	c-0.416,0.63-1.274,0.807-1.915,0.4c-0.041-0.027-0.062-0.066-0.098-0.096c-3.353-2.186-5.576-5.897-5.576-10.134
	c0-4.243,2.227-7.956,5.583-10.143c0.035-0.026,0.055-0.063,0.092-0.087c0.641-0.407,1.498-0.23,1.915,0.4
	c0.417,0.628,0.234,1.461-0.406,1.874L12.732,7.052z M9.714,2.504c-4.174,2.66-6.945,7.26-6.945,12.49
	c0,5.227,2.769,9.827,6.943,12.487l-0.01,0.016h0.002c0.641,0.408,0.823,1.247,0.406,1.874c-0.417,0.627-1.272,0.805-1.912,0.397
	c-0.019-0.013-0.029-0.032-0.047-0.045C3.247,26.577,0,21.161,0,14.994C0,8.827,3.247,3.415,8.148,0.268
	c0.019-0.013,0.029-0.034,0.049-0.047c0.64-0.411,1.499-0.23,1.915,0.397c0.415,0.627,0.236,1.467-0.406,1.874L9.714,2.504z"/>
</svg>
