<?xml version="1.0" ?><!DOCTYPE svg  PUBLIC '-//W3C//DTD SVG 1.1//EN'  'http://www.w3.org/Graphics/SVG/1.1/DTD/svg11.dtd'><svg enable-background="new 0 0 141.732 141.732" height="141.732px" id="Livello_1" version="1.1" viewBox="0 0 141.732 141.732" width="141.732px" xml:space="preserve" xmlns="http://www.w3.org/2000/svg" xmlns:xlink="http://www.w3.org/1999/xlink"><g id="Livello_15"><path d="M28.584,131.094v-16.056c0-4.433-3.34-8.022-7.461-8.022s-7.462,3.59-7.462,8.022v16.056c0,4.433,3.341,8.022,7.462,8.022   S28.584,135.523,28.584,131.094 M53.456,131.094V88.286c0-4.434-3.341-8.022-7.461-8.022c-4.121,0-7.462,3.593-7.462,8.022v42.809   c0,4.433,3.341,8.022,7.462,8.022C50.115,139.117,53.456,135.523,53.456,131.094 M78.328,131.094V61.532   c0-4.433-3.341-8.025-7.462-8.025s-7.461,3.597-7.461,8.025v69.562c0,4.433,3.34,8.022,7.461,8.022S78.328,135.523,78.328,131.094    M103.199,131.094V34.778c0-4.432-3.341-8.024-7.461-8.024c-4.121,0-7.462,3.597-7.462,8.024v96.312   c0,4.437,3.341,8.026,7.462,8.026C99.858,139.116,103.199,135.523,103.199,131.094 M128.071,131.094V8.025   c0-4.433-3.342-8.025-7.461-8.025c-4.121,0-7.463,3.597-7.463,8.025V131.09c0,4.437,3.342,8.026,7.463,8.026   C124.729,139.117,128.071,135.523,128.071,131.094"/></g><g id="Livello_1_1_"/></svg>