<?xml version="1.0" encoding="utf-8"?>
<!-- Generator: Adobe Illustrator 16.0.0, SVG Export Plug-In . SVG Version: 6.00 Build 0)  -->
<!DOCTYPE svg PUBLIC "-//W3C//DTD SVG 1.1//EN" "http://www.w3.org/Graphics/SVG/1.1/DTD/svg11.dtd">
<svg version="1.1" id="Layer_5" xmlns="http://www.w3.org/2000/svg" xmlns:xlink="http://www.w3.org/1999/xlink" x="0px" y="0px"
	 width="80px" height="80px" viewBox="0 0 80 80" enable-background="new 0 0 80 80" xml:space="preserve">
<path d="M0,0v80h80V0H0z M63.684,30.929c0.024,0.483,0.036,0.979,0.036,1.474c0,15.097-11.479,32.503-32.479,32.503
	c-6.435,0-12.434-1.886-17.478-5.161c0.896,0.105,1.804,0.164,2.723,0.164c5.35,0,10.276-1.826,14.177-4.891
	c-4.997-0.095-9.216-3.395-10.666-7.932c0.695,0.142,1.414,0.212,2.145,0.212c1.037,0,2.05-0.141,3.005-0.399
	c-5.221-1.05-9.157-5.657-9.157-11.196c0-0.048,0-0.095,0-0.142c1.532,0.859,3.3,1.379,5.174,1.425
	c-3.065-2.05-5.08-5.55-5.08-9.509c0-2.086,0.566-4.054,1.544-5.74c5.621,6.919,14.036,11.466,23.522,11.939
	c-0.2-0.837-0.294-1.709-0.294-2.605c0-6.304,5.103-11.419,11.408-11.419c3.276,0,6.246,1.39,8.333,3.618
	c2.604-0.507,5.044-1.461,7.248-2.77c-0.85,2.663-2.664,4.903-5.021,6.316c2.31-0.282,4.502-0.895,6.553-1.803
	C67.845,27.299,65.911,29.314,63.684,30.929z"/>
</svg>
